<svg width="343" height="241" viewBox="0 0 343 241" fill="none" xmlns="http://www.w3.org/2000/svg">
<g filter="url(#filter0_d_521_3499)">
<rect x="-0.5" y="0.5" width="248" height="184.405" rx="5.5" transform="matrix(-1 0 0 1 308 36.5938)" stroke="black"/>
<rect width="206" height="144.73" rx="9" transform="matrix(-1 0 0 1 288 56.459)" fill="white"/>
</g>
<path d="M296.27 30.5L284.657 0.5H205.333L192.752 30.5H296.27Z" stroke="black"/>
<rect x="-0.5" y="0.5" width="248" height="195" rx="8.5" transform="matrix(-1 0 0 1 297 26)" stroke="black"/>
<rect width="206" height="153" rx="9" transform="matrix(-1 0 0 1 277 47)" fill="white"/>
<path d="M237.626 60.5H12.3412C6.57925 60.5 2.48688 66.1116 4.24789 71.5978L50.4701 215.598C51.599 219.115 54.8698 221.5 58.5634 221.5H288.292C294.154 221.5 298.256 215.708 296.311 210.179L245.644 66.1788C244.447 62.7764 241.233 60.5 237.626 60.5Z" stroke="black"/>
<defs>
<filter id="filter0_d_521_3499" x="11" y="12" width="320" height="229" filterUnits="userSpaceOnUse" color-interpolation-filters="sRGB">
<feFlood flood-opacity="0" result="BackgroundImageFix"/>
<feColorMatrix in="SourceAlpha" type="matrix" values="0 0 0 0 0 0 0 0 0 0 0 0 0 0 0 0 0 0 127 0" result="hardAlpha"/>
<feOffset dx="15" dy="15"/>
<feGaussianBlur stdDeviation="2"/>
<feComposite in2="hardAlpha" operator="out"/>
<feColorMatrix type="matrix" values="0 0 0 0 0 0 0 0 0 0 0 0 0 0 0 0 0 0 0.44 0"/>
<feBlend mode="normal" in2="BackgroundImageFix" result="effect1_dropShadow_521_3499"/>
<feBlend mode="normal" in="SourceGraphic" in2="effect1_dropShadow_521_3499" result="shape"/>
</filter>
</defs>
</svg>
